.
..............................Site Info...........................

 -   http://www.scenetime.com  *_*   

Scenetime .Always on time . friendly online private torrent community ..

     We care to share . Join us on  http://www.scenetime.com 

    Be the first to get new release at  http://www.scenetime.com

        Seed back for speed


...................................NFO:.................................................[img]http://i.imgur.com/lETs4.jpg[/img]

[b]In.the.Land.of.Blood.and.Honey.2011.BRRip.XViD.AC3-ADTRG[/b]

During the Bosnian War, Danijel, a soldier fighting for the Serbs, re-encounters Ajla, a Bosnian who's now a captive in his camp he oversees. Their once promising connection has become ambiguous as their motives have changed.  

[url]http://www.imdb.com/title/tt1714209/[/url]

Source -   In.the.Land.of.Blood.and.Honey.2011.BluRay.1080p.x264.AC3-PSY  Thanks

Complete name                            : In.the.Land.of.Blood.and.Honey.2011.BRRip.XViD.AC3-ADTRG.avi
Format                                   : AVI
Format/Info                              : Audio Video Interleave
File size                                : 1.92 GiB
Duration                                 : 2h 6mn
Overall bit rate                         : 2 170 Kbps

Video
ID                                       : 0
Format                                   : MPEG-4 Visual
Codec ID                                 : XVID
Duration                                 : 2h 6mn
Bit rate                                 : 1 775 Kbps
Width                                    : 720 pixels
Height                                   : 304 pixels
Display aspect ratio                     : 2.35:1
Frame rate                               : 23.976 fps
Stream size                              : 1.57 GiB (82%)


Audio
ID                                       : 1
Format                                   : AC-3
Duration                                 : 2h 6mn
Bit rate                                 : 384 Kbps
Channel(s)                               : 6 channels
Channel positions                        : Front: L C R, Side: L R, LFE
Sampling rate                            : 48.0 KHz
Stream size                              : 348 MiB (18%)



Encoder - LiMeY
Good things come in small packages, So feel the wrath of my compression

[img]http://i.imgur.com/yxm7l.png[/img]
[img]http://i.imgur.com/8TX2a.png[/img]
[img]http://i.imgur.com/X3wsl.png[/img]
[img]http://i.imgur.com/o5rxn.png[/img]
[img]http://i.imgur.com/Svr44.png[/img]
[img]http://i.imgur.com/GIqbL.png[/img]
[img]http://i.imgur.com/nxEkM.png[/img]
[img]http://i.imgur.com/4972Q.png[/img]


Small size and great Quality from the group you can trust :)


Greetz to DragonMaster,cOOkies,Mr Geek,AnimeKing,Cush,NoWoRRiEs Rayne, Mr & Mrs IrNbRu and the rest of the crew

Respect to CM8,Goon,Hope,mSD,InfernO,legend-rg and maybe a few more ;)